<svg xmlns="http://www.w3.org/2000/svg" width="1200" height="630" viewBox="0 0 1200 630" role="img" aria-label="Tu Estudio Juridico">
  <defs>
    <linearGradient id="bg" x1="0" y1="0" x2="1" y2="1">
      <stop offset="0%" stop-color="#0A223F"/>
      <stop offset="55%" stop-color="#0F3B6E"/>
      <stop offset="100%" stop-color="#0D6A5F"/>
    </linearGradient>
    <radialGradient id="glowA" cx="0.18" cy="0.16" r="0.62">
      <stop offset="0%" stop-color="#5EA7FF" stop-opacity="0.38"/>
      <stop offset="100%" stop-color="#5EA7FF" stop-opacity="0"/>
    </radialGradient>
    <radialGradient id="glowB" cx="0.88" cy="0.86" r="0.58">
      <stop offset="0%" stop-color="#52D9B0" stop-opacity="0.30"/>
      <stop offset="100%" stop-color="#52D9B0" stop-opacity="0"/>
    </radialGradient>
    <linearGradient id="card" x1="0" y1="0" x2="0" y2="1">
      <stop offset="0%" stop-color="#11345E" stop-opacity="0.82"/>
      <stop offset="100%" stop-color="#0D2746" stop-opacity="0.82"/>
    </linearGradient>
  </defs>

  <rect width="1200" height="630" fill="url(#bg)"/>
  <rect width="1200" height="630" fill="url(#glowA)"/>
  <rect width="1200" height="630" fill="url(#glowB)"/>

  <g opacity="0.16" stroke="#DCEBFF" stroke-width="1">
    <path d="M0 110H1200"/>
    <path d="M0 190H1200"/>
    <path d="M0 270H1200"/>
    <path d="M0 350H1200"/>
    <path d="M0 430H1200"/>
    <path d="M0 510H1200"/>
    <path d="M130 0V630"/>
    <path d="M290 0V630"/>
    <path d="M450 0V630"/>
    <path d="M610 0V630"/>
    <path d="M770 0V630"/>
    <path d="M930 0V630"/>
    <path d="M1090 0V630"/>
  </g>

  <rect x="72" y="86" width="760" height="458" rx="28" fill="url(#card)" stroke="#8DBBFF" stroke-opacity="0.32"/>

  <g>
    <rect x="118" y="144" width="162" height="14" rx="7" fill="#D6E6FF" fill-opacity="0.82"/>
    <rect x="118" y="214" width="606" height="72" rx="12" fill="#F4F8FF" fill-opacity="0.96"/>
    <rect x="118" y="306" width="530" height="24" rx="12" fill="#E3EEFF" fill-opacity="0.86"/>
    <rect x="118" y="350" width="420" height="24" rx="12" fill="#E3EEFF" fill-opacity="0.78"/>
    <rect x="118" y="410" width="270" height="58" rx="29" fill="#FF7A45"/>
    <text x="253" y="448" text-anchor="middle" fill="#FFFFFF" font-family="Inter, Arial, sans-serif" font-size="24" font-weight="700">Explorar abogados</text>
  </g>

  <g transform="translate(878 120)">
    <rect width="248" height="390" rx="24" fill="#102A4A" fill-opacity="0.90" stroke="#9DC2FF" stroke-opacity="0.30"/>
    <circle cx="124" cy="82" r="48" fill="#193E69"/>
    <circle cx="124" cy="82" r="30" fill="#7FC8FF"/>
    <rect x="44" y="156" width="160" height="14" rx="7" fill="#DCEBFF" fill-opacity="0.9"/>
    <rect x="34" y="188" width="180" height="11" rx="5.5" fill="#DCEBFF" fill-opacity="0.6"/>
    <rect x="34" y="214" width="180" height="11" rx="5.5" fill="#DCEBFF" fill-opacity="0.6"/>
    <rect x="34" y="252" width="180" height="48" rx="24" fill="#2DC59D"/>
    <text x="124" y="282" text-anchor="middle" fill="#FFFFFF" font-family="Inter, Arial, sans-serif" font-size="19" font-weight="700">Contactar</text>
  </g>

  <text x="118" y="245" fill="#0E2A4B" font-family="Inter, Arial, sans-serif" font-size="54" font-weight="800">Tu Estudio Juridico</text>
  <text x="118" y="292" fill="#234D78" font-family="Inter, Arial, sans-serif" font-size="24" font-weight="600">Encuentra al abogado indicado para tu caso</text>

  <text x="118" y="578" fill="#D7E8FF" font-family="Inter, Arial, sans-serif" font-size="20" font-weight="500">Directorio legal en Chile · Perfiles verificados · Contacto directo</text>
</svg>
